Coordinates
version=1
nRows=29
nColumns=24
inDegrees=yes

Units are S.I. units (second, meters, Newtons, ...)
Angles are in degrees.

endheader
time	pelvis_tilt	pelvis_list	pelvis_rotation	pelvis_tx	pelvis_ty	pelvis_tz	hip_flexion_r	hip_adduction_r	hip_rotation_r	knee_angle_r	ankle_angle_r	subtalar_angle_r	mtp_angle_r	hip_flexion_l	hip_adduction_l	hip_rotation_l	knee_angle_l	ankle_angle_l	subtalar_angle_l	mtp_angle_l	lumbar_extension	lumbar_bending	lumbar_rotation
      0.92033333	      0.48857823	     -0.14450407	     -2.03206603	     -0.16853503	      0.97741401	      0.29732643	    -12.04243540	      3.30321023	     -4.97413475	    -12.10678491	     17.43137788	      1.50521200	     -0.40865703	     23.96105578	      2.06332370	     -4.26340167	     -7.69395441	      1.89940204	     -2.83933773	     -3.21173278	     -2.12117138	      3.88808205	      7.50791710
      0.92450000	      0.49665875	     -0.05775020	     -2.03161688	     -0.16263604	      0.97690897	      0.29701262	    -12.07987808	      3.15334799	     -4.91953946	    -12.77289869	     17.37637898	      1.38529704	     -0.39381313	     23.91432275	      2.22995863	     -4.20309735	     -7.94094807	      1.69601198	     -2.84565305	     -3.14715701	     -2.10437453	      3.79159800	      7.49726187
      0.92866667	      0.37688940	      0.03615025	     -2.04518146	     -0.15677808	      0.97626612	      0.29667867	    -11.90904730	      2.99381665	     -4.81767170	    -13.58561107	     17.56698903	      1.31504589	     -0.31449395	     23.99023934	      2.40886967	     -3.99349949	     -8.20992089	      1.36839809	     -3.11706919	     -2.88436727	     -1.93196820	      3.68786401	      7.51022558
      0.93283333	      0.35836577	      0.15504871	     -2.03356226	     -0.15082032	      0.97580582	      0.29632542	    -11.84276649	      2.80036174	     -4.82877699	    -14.39732361	     17.50532131	      1.32070467	      1.11276639	     23.96127230	      2.61735175	     -3.85152128	     -8.54211352	      0.98014085	     -3.42586084	      1.52673378	     -1.85415493	      3.53191674	      7.48911710
      0.93700000	      0.29042067	      0.24337686	     -2.02622608	     -0.14490341	      0.97532294	      0.29598642	    -11.69666226	      2.65816957	     -4.69371279	    -15.26198923	     17.50974445	      1.08401379	      1.14242054	     23.99975545	      2.78992548	     -3.66582784	     -8.95859745	      0.68861236	     -3.66463471	      1.54048190	     -1.73877698	      3.43179862	      7.48857805
      0.94116667	      0.25098095	      0.37183085	     -2.01024659	     -0.13890706	      0.97493627	      0.29563093	    -11.56239135	      2.46932556	     -4.59926819	    -16.15954505	     17.42009724	      0.88137031	      1.17509339	     24.00337557	      3.00452569	     -3.51593268	     -9.41461057	      0.39942958	     -3.90234297	      1.56089799	     -1.63964110	      3.26482179	      7.47340142
      0.94533333	      0.18972095	      0.45553424	     -1.99070211	     -0.13297605	      0.97454446	      0.29524464	    -11.35027939	      2.32711220	     -4.49543543	    -17.15416248	     17.33362723	      0.70583861	      1.26566554	     24.03111463	      3.18303363	     -3.26211144	     -9.89752818	      0.05985302	     -4.34297016	      1.61590612	     -1.52346188	      3.17246615	      7.44709654
      0.94950000	      0.13088545	      0.57263605	     -1.97246172	     -0.12697643	      0.97421559	      0.29486191	    -11.11377657	      2.14684171	     -4.39886629	    -18.19720431	     17.16731966	      0.50879375	      1.37098654	     24.04818396	      3.38813439	     -3.06412770	    -10.39852015	     -0.26387511	     -4.69062899	      1.67560562	     -1.39958634	      3.02965120	      7.41284355
      0.95366667	      0.09073062	      0.69376418	     -1.93805680	     -0.12096846	      0.97394461	      0.29444210	    -10.86832555	      1.96115114	     -4.32580708	    -19.28587865	     16.94353344	      0.33148456	      1.54779862	     24.05243663	      3.60537778	     -2.85377435	    -10.93861832	     -0.58474556	     -5.12268851	      1.76381249	     -1.30184671	      2.88315485	      7.37201679
      0.95783333	      0.04097185	      0.81926191	     -1.91657689	     -0.11495504	      0.97370679	      0.29404136	    -10.56176753	      1.76468168	     -4.24788883	    -20.46219503	     16.65270714	      0.14811534	      1.71695494	     24.05075790	      3.81574932	     -2.66648236	    -11.46247092	     -0.89257747	     -5.45786908	      1.83564902	     -1.18481692	      2.72795238	      7.32184145
      0.96200000	     -0.00641450	      0.95306303	     -1.88830959	     -0.10893070	      0.97351353	      0.29361328	    -10.22094751	      1.55426725	     -4.18991255	    -21.69465618	     16.28930256	     -0.01833531	      1.90929866	     24.04845164	      4.03630274	     -2.49024436	    -12.00833581	     -1.18249238	     -5.82713469	      1.90422164	     -1.07015011	      2.56662815	      7.26947978
      0.96616667	     -0.05055599	      1.08678312	     -1.84972453	     -0.10292453	      0.97335404	      0.29315156	     -9.84377212	      1.33829263	     -4.15323713	    -22.98846768	     15.88520537	     -0.13964274	      2.23882587	     24.05254078	      4.26248078	     -2.30540137	    -12.58421875	     -1.47547383	     -6.29407463	      2.00143821	     -0.96959819	      2.40521716	      7.21195680
      0.97033333	     -0.03323033	      1.26025752	     -1.82180024	     -0.09685248	      0.97332377	      0.29272892	     -9.50865673	      1.07365025	     -4.11483004	    -24.31513882	     15.34338147	     -0.31685430	      2.37719234	     23.97359112	      4.50972391	     -2.23065316	    -13.14756794	     -1.63405756	     -6.48110736	      2.03757134	     -0.93502662	      2.17629253	      7.15992493
      0.97450000	     -0.13542708	      1.39261393	     -1.80839768	     -0.09089536	      0.97317185	      0.29226196	     -8.94906249	      0.83481105	     -4.09765105	    -25.79809234	     14.78381431	     -0.36322319	      2.72014381	     24.00123218	      4.72234781	     -2.03646210	    -13.65452457	     -1.90475858	     -6.90693037	      2.10408819	     -0.74746593	      2.03919723	      7.08646217
      0.97866667	     -0.09995876	      1.59708300	     -1.77470426	     -0.08486548	      0.97321152	      0.29175354	     -8.53160987	      0.49208595	     -4.17868721	    -27.26712727	     14.00960566	     -0.43609489	     10.08676189	     23.88799956	      5.01139986	     -1.94450346	    -14.19219100	     -2.06963851	     -7.25645331	      3.24831464	     -0.74414275	      1.78487240	      7.00197711
      0.98283333	     -0.12830805	      1.77006313	     -1.76543093	     -0.07888307	      0.97323614	      0.29131523	     -7.99772890	      0.20119990	     -4.14777743	    -28.80907537	     13.24992567	     -0.55359268	     10.12297069	     23.82958827	      5.24815781	     -1.86859394	    -14.70838269	     -2.17873240	     -7.47379519	      3.23509286	     -0.65029550	      1.58193321	      6.94864485
      0.98700000	     -0.14460013	      1.97006493	     -1.75538718	     -0.07293248	      0.97329103	      0.29085063	     -7.42850101	     -0.13710126	     -4.15374424	    -30.42152995	     12.44816938	     -0.59108650	     10.20242830	     23.75653141	      5.51287531	     -1.81124721	    -15.22176471	     -2.23349888	     -7.69816755	      3.21847576	     -0.58346600	      1.34814120	      6.88310209
      0.99116667	     -0.16766327	      2.17024544	     -1.74208511	     -0.06702755	      0.97334083	      0.29037825	     -6.80694029	     -0.48746871	     -4.18244078	    -32.09427428	     11.59139934	     -0.53203647	     10.37357506	     23.69411496	      5.77782050	     -1.75659390	    -15.74422652	     -2.25411913	     -7.95323278	      3.18835440	     -0.51337781	      1.09868516	      6.81133446
      0.99533333	     -0.16280169	      2.39649037	     -1.73922889	     -0.06113479	      0.97347067	      0.28991611	     -6.18185411	     -0.87593760	     -4.20497189	    -33.79979849	     10.64751732	     -0.49051985	     10.60421503	     23.57751624	      6.06298141	     -1.73153085	    -16.21961722	     -2.21116449	     -8.12502314	      3.15015700	     -0.47713889	      0.82895038	      6.73723959
      0.99950000	     -0.14071672	      2.64835741	     -1.74448028	     -0.05524923	      0.97365077	      0.28945085	     -5.54431358	     -1.30825672	     -4.23300206	    -35.52960918	      9.59158132	     -0.54074962	     15.02880799	     23.41545969	      6.37369879	     -1.70963142	    -16.64430037	     -2.08988531	     -8.25721049	      2.38586846	     -0.45497312	      0.52762663	      6.64890751
      1.00366667	     -0.10174087	      2.90864581	     -1.75700470	     -0.04940312	      0.97389077	      0.28904216	     -4.90055070	     -1.73649892	     -4.20253298	    -37.27938125	      8.54899970	     -0.62074016	     15.03208907	     23.23414353	      6.67821632	     -1.74680775	    -17.06715005	     -1.90867434	     -8.27671123	      2.39232056	     -0.46466082	      0.20407083	      6.58237778
      1.00783333	     -0.12284377	      3.14891033	     -1.76330223	     -0.04363322	      0.97404692	      0.28859868	     -4.14488323	     -2.16111288	     -4.21260381	    -39.08096315	      7.44626570	     -0.55094729	     15.06622016	     23.11793476	      6.96155221	     -1.79284233	    -17.48086928	     -1.74979263	     -8.34013843	      2.39032074	     -0.39620254	     -0.06096145	      6.50614131
      1.01200000	     -0.07762799	      3.43274953	     -1.78055841	     -0.03787529	      0.97432685	      0.28819930	     -3.44912428	     -2.62572874	     -4.16961180	    -40.87246987	      6.37202806	     -0.59126461	     15.08949855	     22.89815562	      7.28797083	     -1.84010506	    -17.83368202	     -1.49463955	     -8.34317298	      2.38915295	     -0.41598339	     -0.41407972	      6.42534843
      1.01616667	     -0.04700429	      3.71291084	     -1.79490860	     -0.03217539	      0.97459184	      0.28779526	     -2.71048676	     -3.09087878	     -4.12880628	    -42.67809458	      5.28080480	     -0.61774535	     15.10878995	     22.68606931	      7.60921506	     -1.90470812	    -18.16331962	     -1.22472168	     -8.33435466	      2.38538011	     -0.42460198	     -0.74868793	      6.33907911
      1.02033333	     -0.02945208	      3.99359345	     -1.80440352	     -0.02652555	      0.97485365	      0.28739939	     -1.93873152	     -3.55455615	     -4.07743229	    -44.47818937	      4.19262168	     -0.63845898	     15.12387635	     22.47950496	      7.92840259	     -1.98125417	    -18.47343971	     -0.94917481	     -8.30663607	      2.37675781	     -0.41827419	     -1.07664205	      6.24695512
      1.02450000	     -0.03235627	      4.26362385	     -1.80495046	     -0.02093716	      0.97510594	      0.28702463	     -1.12694915	     -3.99839166	     -4.01372494	    -46.26815387	      3.13915213	     -0.68909852	     15.12504971	     22.28428811	      8.23378120	     -2.06801933	    -18.75816012	     -0.65369231	     -8.26669458	      2.36203152	     -0.40299874	     -1.41603457	      6.14742340
      1.02866667	     -0.01726402	      4.54705528	     -1.81290580	     -0.01537706	      0.97540891	      0.28665847	     -0.32414764	     -4.45401718	     -3.92596459	    -48.03415731	      2.15161965	     -0.78480225	     15.09709162	     22.04291445	      8.55250754	     -2.16338130	    -18.98634027	     -0.32855329	     -8.20553064	      2.34069192	     -0.39968022	     -1.74483795	      6.04269177
      1.03283333	      0.02993661	      4.83894839	     -1.81784123	     -0.00983762	      0.97577665	      0.28631583	      0.44785741	     -4.91110124	     -3.82408774	    -49.76460925	      1.25081674	     -0.94369029	     15.05054527	     21.73288475	      8.88285233	     -2.24636648	    -19.14582780	      0.01959499	     -8.11224109	      2.33140495	     -0.43970428	     -2.10329682	      5.93871358
      1.03700000	      0.04328459	      5.11615654	     -1.81196654	     -0.00436917	      0.97611666	      0.28598154	      1.26696509	     -5.33981049	     -3.70893054	    -51.46129441	      0.40218959	     -1.11107350	     14.96772351	     21.45326683	      9.19673617	     -2.33308250	    -19.28672502	      0.33530816	     -8.01073734	      2.31781617	     -0.45281735	     -2.44365372	      5.82150270
